<svg xmlns="http://www.w3.org/2000/svg" viewBox="0 0 100 100" width="100" height="100">
  <defs>
    <linearGradient id="chatbotGradient" x1="0%" y1="0%" x2="100%" y2="100%">
      <stop offset="0%" style="stop-color:#3b82f6;stop-opacity:1" />
      <stop offset="100%" style="stop-color:#1d4ed8;stop-opacity:1" />
    </linearGradient>
  </defs>
  
  <!-- Robot head background -->
  <rect x="20" y="25" width="60" height="50" rx="15" fill="url(#chatbotGradient)" stroke="#1e40af" stroke-width="2"/>
  
  <!-- Eyes -->
  <circle cx="35" cy="40" r="6" fill="white"/>
  <circle cx="65" cy="40" r="6" fill="white"/>
  <circle cx="35" cy="40" r="3" fill="#1e40af"/>
  <circle cx="65" cy="40" r="3" fill="#1e40af"/>
  
  <!-- Mouth/speaker -->
  <rect x="40" y="55" width="20" height="8" rx="4" fill="white"/>
  <rect x="42" y="57" width="4" height="4" rx="1" fill="#1e40af"/>
  <rect x="48" y="57" width="4" height="4" rx="1" fill="#1e40af"/>
  <rect x="54" y="57" width="4" height="4" rx="1" fill="#1e40af"/>
  
  <!-- Antennae -->
  <circle cx="35" cy="20" r="3" fill="#10b981"/>
  <line x1="35" y1="25" x2="35" y2="20" stroke="white" stroke-width="2"/>
  <circle cx="65" cy="20" r="3" fill="#10b981"/>
  <line x1="65" y1="25" x2="65" y2="20" stroke="white" stroke-width="2"/>
  
  <!-- Medical cross on forehead -->
  <rect x="47" y="30" width="6" height="2" fill="white"/>
  <rect x="49" y="28" width="2" height="6" fill="white"/>
  
  <!-- Body -->
  <rect x="30" y="75" width="40" height="20" rx="8" fill="url(#chatbotGradient)" stroke="#1e40af" stroke-width="2"/>
  
  <!-- Chat bubble -->
  <circle cx="85" cy="35" r="12" fill="white" stroke="#1e40af" stroke-width="2"/>
  <path d="M78 42 L85 47 L85 42 Z" fill="white" stroke="#1e40af" stroke-width="1"/>
  <circle cx="82" cy="32" r="1.5" fill="#1e40af"/>
  <circle cx="85" cy="32" r="1.5" fill="#1e40af"/>
  <circle cx="88" cy="32" r="1.5" fill="#1e40af"/>
</svg>
